<svg xmlns="http://www.w3.org/2000/svg" viewBox="0 0 120 120" role="img" aria-label="Girl avatar">
  <defs>
    <linearGradient id="bgGirl" x1="0" y1="0" x2="1" y2="1">
      <stop offset="0%" stop-color="#fce7f3" />
      <stop offset="100%" stop-color="#f9a8d4" />
    </linearGradient>
  </defs>
  <rect width="120" height="120" rx="60" fill="url(#bgGirl)" />
  <circle cx="60" cy="41" r="19" fill="#fdba74" />
  <path d="M38 46c2-18 11-28 22-28s20 10 22 28c-5-6-9-8-22-8s-17 2-22 8z" fill="#7e22ce" />
  <circle cx="45" cy="45" r="6" fill="#7e22ce" />
  <circle cx="75" cy="45" r="6" fill="#7e22ce" />
  <circle cx="45" cy="45" r="2" fill="#f472b6" />
  <circle cx="75" cy="45" r="2" fill="#f472b6" />
  <circle cx="53" cy="42" r="2" fill="#4a044e" />
  <circle cx="67" cy="42" r="2" fill="#4a044e" />
  <path d="M54 49c2 2 10 2 12 0" stroke="#7c2d12" stroke-width="2" fill="none" stroke-linecap="round" />
  <path d="M28 96c3-16 15-28 32-28s29 12 32 28" fill="#db2777" />
  <rect x="44" y="68" width="32" height="12" rx="6" fill="#fdba74" />
  <circle cx="98" cy="20" r="10" fill="#be185d" opacity="0.95" />
  <path d="M98 14v12M92 20h12" stroke="#ffffff" stroke-width="2" stroke-linecap="round" />
</svg>
