<svg xmlns="http://www.w3.org/2000/svg" viewBox="0 0 120 120" role="img" aria-label="Boy avatar">
  <defs>
    <linearGradient id="bgBoy" x1="0" y1="0" x2="1" y2="1">
      <stop offset="0%" stop-color="#dbeafe" />
      <stop offset="100%" stop-color="#93c5fd" />
    </linearGradient>
  </defs>
  <rect width="120" height="120" rx="60" fill="url(#bgBoy)" />
  <circle cx="60" cy="41" r="20" fill="#fdba74" />
  <path d="M40 40c2-12 11-20 20-20s18 8 20 20c-6-6-11-9-20-9s-14 3-20 9z" fill="#1f2937" />
  <circle cx="53" cy="42" r="2" fill="#1f2937" />
  <circle cx="67" cy="42" r="2" fill="#1f2937" />
  <path d="M54 49c2 2 10 2 12 0" stroke="#7c2d12" stroke-width="2" fill="none" stroke-linecap="round" />
  <path d="M28 96c3-16 15-28 32-28s29 12 32 28" fill="#2563eb" />
  <rect x="44" y="68" width="32" height="12" rx="6" fill="#fdba74" />
  <circle cx="98" cy="20" r="10" fill="#1d4ed8" opacity="0.95" />
  <path d="M94 20l3 3 5-6" stroke="#ffffff" stroke-width="2" fill="none" stroke-linecap="round" stroke-linejoin="round" />
</svg>
